<?xml version="1.0" encoding="utf-8"?>
<!-- Generator: Adobe Illustrator 17.0.2, SVG Export Plug-In . SVG Version: 6.00 Build 0)  -->
<!DOCTYPE svg PUBLIC "-//W3C//DTD SVG 1.1//EN" "http://www.w3.org/Graphics/SVG/1.1/DTD/svg11.dtd">
<svg version="1.1" id="Layer_1" xmlns="http://www.w3.org/2000/svg" xmlns:xlink="http://www.w3.org/1999/xlink" x="0px" y="0px"
	 width="512px" height="512px" viewBox="0 0 512 512" enable-background="new 0 0 512 512" xml:space="preserve">
<path d="M379.654,331.588V155.773c0-10.497-8.509-19.006-19.006-19.006c-10.497,0-19.006,8.509-19.006,19.006v109.769
	c0,4.376-3.547,7.923-7.923,7.923c-4.376,0-7.923-3.547-7.923-7.923V126.335c0-10.497-8.509-19.006-19.006-19.006
	c-10.497,0-19.006,8.509-19.006,19.006V251.46c0,4.376-3.547,7.923-7.923,7.923c-4.376,0-7.923-3.547-7.923-7.923V126.335
	c0-10.497-8.509-19.006-19.006-19.006c-10.497,0-19.006,8.509-19.006,19.006V261.58c0,4.376-3.547,7.923-7.923,7.923
	s-7.923-3.547-7.923-7.923V144.378c0-10.497-8.509-19.006-19.006-19.006s-19.006,8.509-19.006,19.006c0,0,0,145.397,0,156.8
	s-16.357,12.164-34.211-11.404c-23.758-31.36-59.921-20.262-30.461,22.825C144.619,355.345,161.298,448,269.751,448
	C360.549,448,379.654,383.854,379.654,331.588z"/>
</svg>
