<?xml version="1.0" encoding="utf-8"?>
<!-- Generator: Adobe Illustrator 17.0.2, SVG Export Plug-In . SVG Version: 6.00 Build 0)  -->
<!DOCTYPE svg PUBLIC "-//W3C//DTD SVG 1.1//EN" "http://www.w3.org/Graphics/SVG/1.1/DTD/svg11.dtd">
<svg version="1.1" id="Layer_1" xmlns="http://www.w3.org/2000/svg" xmlns:xlink="http://www.w3.org/1999/xlink" x="0px" y="0px"
	 width="512px" height="512px" viewBox="0 0 512 512" enable-background="new 0 0 512 512" xml:space="preserve">
<path d="M457.5,213.5h-26.619c-9.022-20.138-25.38-35.729-45.328-42.793c-0.035-0.731-0.052-1.467-0.052-2.207
	c0-14.483,6.746-27.43,17.346-36.052c-3.344-0.62-6.803-0.948-10.346-0.948c-24.382,0-44.836,15.412-50.46,36.203
	c-10.717,1.417-20.523,4.318-28.887,9.588C289.481,166.022,261.495,159.5,231.5,159.5c-73.653,0-135.219,39.286-150.401,91.779
	c-1.176,0.162-2.376,0.249-3.599,0.249c-13.807,0-25-10.662-25-23.814c0-9.908,6.353-18.4,15.39-21.988
	c-19.223,1.825-34.134,14.902-34.134,30.774c0,17.121,17.346,31,38.744,31c1.863,0,3.693-0.112,5.486-0.315
	c-0.319,3.073-0.486,6.179-0.486,9.315c0,22.812,8.602,44.094,23.463,62.09l1.322,62.945c0.081,3.858,10.978,9.576,24.344,13.037
	s25.669,3.748,27.612,0.414l17.793-30.533c18.297,5.824,38.385,9.046,59.466,9.046c18.497,0,36.228-2.484,52.658-7.026
	l16.261,29.286c1.873,3.373,14.179,3.342,27.615,0.16s24.449-8.672,24.61-12.528l2.385-57.038c4.378-4.462,8.362-9.16,11.881-14.081
	c19.421-1.454,36.854-10.656,49.656-24.774H457.5c13.666,0,24.744-21.043,24.744-47S471.166,213.5,457.5,213.5z M283.537,189.13
	c-1.085,2.541-4.023,3.717-6.562,2.635c-14.396-6.147-29.809-9.265-45.808-9.265c-17.591,0-35.067,3.947-50.537,11.415
	c-0.7,0.338-1.441,0.498-2.17,0.498c-1.859,0-3.644-1.041-4.506-2.828c-1.2-2.487-0.157-5.476,2.33-6.676
	c16.817-8.118,35.796-12.409,54.884-12.409c17.356,0,34.09,3.387,49.736,10.068C283.441,183.653,284.621,186.59,283.537,189.13z"/>
</svg>
