<?xml version="1.0" encoding="utf-8"?>
<!-- Generator: Adobe Illustrator 17.0.2, SVG Export Plug-In . SVG Version: 6.00 Build 0)  -->
<!DOCTYPE svg PUBLIC "-//W3C//DTD SVG 1.1//EN" "http://www.w3.org/Graphics/SVG/1.1/DTD/svg11.dtd">
<svg version="1.1" id="Layer_1" xmlns="http://www.w3.org/2000/svg" xmlns:xlink="http://www.w3.org/1999/xlink" x="0px" y="0px"
	 width="512px" height="512px" viewBox="0 0 512 512" enable-background="new 0 0 512 512" xml:space="preserve">
<path d="M170.516,406.118c0,23.131-18.751,41.882-41.882,41.882s-41.881-18.751-41.881-41.882V259.829
	c0-23.131,18.751-41.882,41.882-41.882s41.882,18.751,41.882,41.882L170.516,406.118L170.516,406.118z"/>
<path d="M297.882,406.118C297.882,429.249,279.131,448,256,448s-41.882-18.751-41.882-41.882V223.8
	c0-23.131,18.751-41.882,41.882-41.882s41.882,18.751,41.882,41.882V406.118z"/>
<path d="M425.248,406.118c0,23.131-18.751,41.882-41.882,41.882s-41.882-18.751-41.882-41.882V160.748
	c0-23.131,18.751-41.882,41.882-41.882c23.131,0,41.882,18.751,41.882,41.882L425.248,406.118L425.248,406.118z"/>
</svg>
