<svg xmlns="http://www.w3.org/2000/svg" style="display: none;">
  
    <symbol id="icon-piggy" viewBox="0 0 512 512">
      <path d="m482 187c-7-9-16-4-24-5-7-1-16-4-17-5-10-17-25-32-44-40 3-29 40-45-4-38-26 4-41 19-48 31-12 2-23 6-34 12-24-12-54-19-85-19-75 0-140 42-158 99-33 4-30-15-27-22 3-9 20-13 12-14-28-3-48 29-28 46 14 14 30 15 37 14 0 3-1 7-1 10 0 30 13 56 32 79-1 5-6 34-7 47-1 10 11 20 25 28 12 7 31 5 36 0 6-4 14-24 16-29 19 6 41 10 62 10 21 0 41-3 60-9 3 6 10 24 15 28 6 5 25 7 37 0 12-8 25-18 24-28-1-11-5-33-6-42 5-6 11-11 16-18 23-4 45-15 59-32 8-2 19-4 22-3 6 1 15 7 21 2 42-35 17-91 9-102z m-196-20c0 0-59-32-111 0l-5-9c0 0 52-34 110-3z"/>
    </symbol>
  
    <symbol id="icon-home" viewBox="0 0 512 512">
      <path d="m256 20l-105 110 0-52c0-4-5-8-9-8l-39 0c-4 0-8 4-8 8l0 108-76 80 59 0 0 202c0 13 10 24 23 24l104 0 0-147 97 0 0 147 110 0c13 0 23-11 23-24l0-202 59 0z"/>
    </symbol>
  
    <symbol id="icon-hand" viewBox="0 0 512 512">
      <path d="m443 376l0-3-3-296c0-17-13-30-29-30-17 0-30 13-30 30l0 160c-4-1-8-3-12-5l0-187c0-16-14-30-30-30-16 0-30 14-30 30l0 180c-2 0-4 0-7 0-2 0-4 0-6 0l0-180c0-16-13-30-30-30-16 0-29 14-29 30l0 187c-5 1-9 2-13 4l0-167c0-17-13-30-29-30-17 0-31 13-31 30l0 233-43-42c-11-12-30-13-42-3-12 11-13 30-3 42l101 133c24 39 71 65 124 65 70 0 128-45 139-104 2-6 3-12 3-17z"/>
    </symbol>
  
    <symbol id="icon-dollar" viewBox="0 0 512 512">
      <path d="m431 172l-349 0c-3 13-13 27-31 31l0 107c18 4 27 18 31 31l349 0c3-13 13-27 31-31l0-107c-18-5-27-19-31-31z m-174 149c-31 0-56-29-56-65 0-36 25-65 56-65 31 0 56 29 56 65 0 36-25 65-56 65z m210-168c7 0 12 5 12 12l0 183c0 7-5 12-12 12l-422 0c-7 0-12-5-12-12l0-183c0-7 5-12 12-12l422 0m0-26l-422 0c-20 0-38 16-38 38l0 183c0 21 17 38 38 38l423 0c20 0 38-16 38-38l0-183c-1-21-18-38-39-38z"/>
    </symbol>
  
    <symbol id="icon-circles" viewBox="0 0 512 512">
      <path d="m333 87c-76 0-139 49-162 118 40 21 68 64 68 113 0 24-7 47-18 66 30 27 69 42 112 42 93-1 169-77 169-170 0-93-76-169-169-169z m-124 230c0 55-45 100-99 100-55 0-100-45-100-100 0-54 45-99 100-99 54 0 99 45 99 99z"/>
    </symbol>
  
    <symbol id="icon-book" viewBox="0 0 512 512">
      <path d="m416 86l-243-71c-3-1-5 0-8 1l-72 56c-3 3-4 6-3 10l0 342 252 73 0-347-232-67 63-48 231 67 0 340c0 5 5 10 10 10 5 0 9-5 9-10l0-347c0-4-3-8-7-9z"/>
    </symbol>
  
    <symbol id="icon-bars" viewBox="0 0 512 512">
      <path d="m256 485c-34 0-60-26-60-60l0-242c0-33 26-60 60-60 34 0 60 27 60 60l0 242c0 34-26 60-60 60z m-169 0c-34 0-60-26-60-60l0-181c0-34 26-61 60-61 34 0 60 27 60 61l0 181c0 34-26 60-60 60z m338 0c-34 0-60-26-60-60l0-338c0-34 26-60 60-60 34 0 60 26 60 60l0 338c0 34-26 60-60 60z"/>
    </symbol>
  
</svg>
