<?xml version="1.0" encoding="utf-8"?>
<!-- Generator: Adobe Illustrator 22.0.1, SVG Export Plug-In . SVG Version: 6.00 Build 0)  -->
<svg version="1.1" id="Layer_1" xmlns="http://www.w3.org/2000/svg" xmlns:xlink="http://www.w3.org/1999/xlink" x="0px" y="0px"
	 viewBox="0 0 500 500" enable-background="new 0 0 500 500" xml:space="preserve">
<g>
	<path d="M483.866,193.071c-4.967-13.164-12.877-19.977-27.425-18.42c-12.395,1.326-22.005-3.709-28.334-14.526
		c-4.603-7.868-11.468-13.307-18.784-18.382c-21.17-14.683-21.15-14.714-5.844-36.175c0.735-1.031,1.643-1.953,2.278-3.038
		c3.473-5.935,2.736-9.908-5.124-9.501c-22.626,1.17-44.08,5.031-58.334,25.578c-2.86,4.122-6.612,7.122-12.363,7.779
		c-7.057,0.805-13.751,3.529-20.218,6.735c-3.108,1.541-6.027,3.118-10.464,1.087c-29.267-13.391-60.347-18.041-92.204-15.747
		c-61.864,4.453-113.83,26.383-143.397,85.279c-3.96,7.887-10.407,10.482-17.811,10.033c-5.732-0.348-11.277-3.307-13.156-10.056
		c-2.441-8.766,1.493-14.62,8.414-19.185c1.674-1.105,3.988-1.453,4.319-4.003c-17.131-2.757-30.616,4.062-35.081,17.71
		c-4.645,14.197,1.715,26.428,17.671,34.35c6.473,3.213,13.192,5.022,20.439,4.911c3.579-0.056,6.728,0.181,6.237,5.378
		c-2.236,23.658,3.507,45.706,18.06,64.08c11.143,14.068,13.465,27.131,8.525,44.371c-3.372,11.767-6.794,26.664,7.988,35.833
		c4.927,3.056,9.591,6.606,14.729,9.239c18.724,9.596,37.671,4,45.945-15.087c4.745-10.947,10.28-11.939,20.768-9.078
		c31.937,8.713,64.282,9.367,96.131-0.372c9.517-2.911,13.393-0.543,16.996,8.084c3.094,7.409,5.733,15.699,15.408,18.633
		c31.195,9.46,60.856-16.797,53.964-48.114c-0.627-2.849-1.275-5.725-1.518-8.621c-1.649-19.669,5.381-29.02,25.421-33.474
		c15.65-3.478,28.789-11.823,40.509-22.046c10.01-8.732,21.034-10.688,32.783-7.209c10.016,2.966,16.679,0.222,23.285-7.141
		C495.294,247.882,494.545,221.37,483.866,193.071z M241.958,147.759c-22.738-3.507-44.506-1.933-65.428,8.043
		c-3.682,1.756-7.476,4.901-10.229-1.492c-2.506-5.82,2.381-6.47,5.408-7.873c31.418-14.568,63.279-16.481,95.511-2.711
		c6.665,2.847,6.592,3.018,10.468,13.184C264.412,154.487,253.651,149.561,241.958,147.759z"/>
</g>
</svg>
