<?xml version="1.0" encoding="utf-8"?>
<!-- Generator: Adobe Illustrator 22.0.1, SVG Export Plug-In . SVG Version: 6.00 Build 0)  -->
<svg version="1.1" id="Layer_1" xmlns="http://www.w3.org/2000/svg" xmlns:xlink="http://www.w3.org/1999/xlink" x="0px" y="0px"
	 viewBox="0 0 500 500" enable-background="new 0 0 500 500" xml:space="preserve">
<g>
	<path d="M435.314,283.312c-0.637-70.979-1.019-141.962-1.662-212.94c-0.188-20.734-10.908-31.281-31.04-31.311
		c-20.525-0.03-28.525,8.16-28.69,30.444c-0.245,33.256-0.074,66.515-0.08,99.774c-0.003,15.884,0.16,31.772-0.145,47.65
		c-0.059,3.079,2.608,9.041-4.663,8.101c-4.187-0.541-7.445-2.585-7.166-7.749c0.188-3.463-0.008-6.947-0.008-10.422
		c-0.003-51.128-0.346-102.26,0.181-153.382c0.021-2.053,0.01-4.084-0.037-6.095l0.037-3.828c0.011-8.017-0.282-15.916-4.361-23.084
		c-6.568-11.538-20.487-17.685-33.067-14.737c-13.502,3.164-23.081,15.431-23.554,31.088c-0.344,3.445-0.452,6.992-0.446,10.594
		c0.093,50.632,0.045,101.263,0.009,151.894c-0.003,3.957-0.09,7.945-0.59,11.86c-0.371,2.902-2.839,4.146-5.438,3.506
		c-1.602-0.395-3.845-1.964-4.101-3.325c-0.724-3.855-0.738-7.875-0.741-11.83c-0.038-51.624-0.06-103.249,0.01-154.873
		c0.011-8.017-0.282-15.916-4.361-23.084c-6.568-11.538-20.487-17.685-33.067-14.737c-13.81,3.236-23.585,15.97-23.637,32.14
		c-0.183,56.588,0.033,113.178-0.259,169.764c-0.028,5.488,3.939,15.107-6.507,14.897c-9.333-0.188-5.15-9.206-5.187-14.098
		c-0.359-48.644-0.146-97.291-0.256-145.937c-0.047-21.035-10.962-33.338-29.298-33.589c-18.826-0.258-30.452,12.178-30.479,33.14
		c-0.087,69.991-0.037,139.982-0.039,209.972c-0.001,4.741,0,9.48,0,17.049c-16.605-15.314-31.212-28.367-45.323-41.935
		c-10.743-10.331-23.116-11.162-35.588-5.773c-11.188,4.833-13.864,15.478-14.572,27.116c-0.63,10.359,4.525,17.645,10.167,25.055
		c24.854,32.644,49.675,65.312,74.619,97.888c13.971,18.245,25.769,39.038,42.705,53.964
		c47.05,41.465,102.477,50.615,161.036,29.711c51.603-18.421,89.406-63.844,87.038-121.448
		C435.778,330.951,435.527,307.125,435.314,283.312z"/>
</g>
</svg>
