<?xml version="1.0" encoding="utf-8"?>
<!-- Generator: Adobe Illustrator 22.0.1, SVG Export Plug-In . SVG Version: 6.00 Build 0)  -->
<svg version="1.1" id="Layer_1" xmlns="http://www.w3.org/2000/svg" xmlns:xlink="http://www.w3.org/1999/xlink" x="0px" y="0px"
	 viewBox="0 0 500 500" enable-background="new 0 0 500 500" xml:space="preserve">
<g>
	<path fill="#FDFDFD" d="M365.942,78.687c-0.182,55.764-0.045,111.528-0.055,167.292c0,56.29,0.036,112.58-0.027,168.87
		c0.063-56.29,0.027-112.58,0.032-168.87C365.897,190.215,365.76,134.451,365.942,78.687z"/>
	<path fill="#FDFDFD" d="M9.765,280.777c-0.077,15.507-0.287,31.018-0.289,46.522c0,29.431,0,58.863,0,88.295
		c0-29.432,0-58.863,0.001-88.295C9.478,311.795,9.687,296.284,9.765,280.777z"/>
	<path fill="#FDFDFD" d="M186.854,295.601c0.012-39.945,0.438-79.896-0.117-119.834c0.555,39.938,0.129,79.888,0.105,119.834
		c0,39.419-0.116,78.84,0.113,118.257C186.726,374.44,186.841,335.02,186.854,295.601z"/>
	<path d="M428.697,13.001c-39.773-0.203-62.617,23.501-62.755,65.686c-0.182,55.764-0.045,111.528-0.05,167.292
		c-0.005,56.29,0.031,112.58-0.032,168.87c-0.014,12.725,1,25.098,7.706,36.435c13.853,23.417,42.741,34.806,70.415,27.542
		c30.054-7.889,48.674-30.991,48.71-61.501c0.136-112.58,0.084-225.16,0.037-337.741C492.712,40.472,466.384,13.193,428.697,13.001z
		"/>
	<path d="M188.502,434c10.179,33.115,36.341,50.166,71.779,46.165c29.666-3.35,54.513-30.345,54.824-63.151
		c0.768-80.934,0.897-161.888-0.075-242.818c-0.439-36.625-31.052-64.214-66.638-62.997c-39.409,1.347-62.141,29.69-61.656,64.57
		c0.555,39.938,0.129,79.888,0.117,119.834c-0.012,39.419-0.128,78.84,0.101,118.257C186.993,420.54,186.415,427.21,188.502,434z"/>
	<path d="M84.936,479.911c27.984-4.381,51.115-31.304,51.266-61.02c0.313-61.489-0.339-122.984,0.247-184.47
		c0.296-31.122-28.461-62.356-67.467-61.103c-30.45,0.978-60.931,25.847-59.727,60.963c0.531,15.485,0.587,30.988,0.509,46.495
		c-0.077,15.507-0.287,31.018-0.287,46.522c-0.001,29.431-0.001,58.863-0.001,88.295c0,1.051-0.063,2.108,0.015,3.153
		c0.504,6.747-0.31,13.948,1.791,20.159C21.515,469.159,50.969,485.228,84.936,479.911z"/>
</g>
</svg>
