<?xml version="1.0" encoding="utf-8"?>
<!-- Generator: Adobe Illustrator 22.0.1, SVG Export Plug-In . SVG Version: 6.00 Build 0)  -->
<svg version="1.1" id="Layer_1" xmlns="http://www.w3.org/2000/svg" xmlns:xlink="http://www.w3.org/1999/xlink" x="0px" y="0px"
	 viewBox="0 0 500 500" enable-background="new 0 0 500 500" xml:space="preserve">
<path d="M434.343,208.827C374.528,146.725,315.165,84.186,255.897,21.561c-6.591-6.965-10.986-5.432-15.674,1.08
	c-14.396,19.997-33.471,35.538-50.355,53.165c-11.598,12.109-24.54,22.959-34.007,37.122c-2.085,3.121-4.228,8.541-10.777,6.94
	c0-5.702,0.051-11.3-0.008-16.896c-0.475-44.248,5.767-37.213-38.023-38.607c-13.562-0.432-16.16,4.686-15.843,16.738
	c0.726,27.574-0.217,55.191,0.439,82.769c0.274,11.508-2.49,20.224-11.2,28.354c-19.402,18.11-37.889,37.206-56.577,56.07
	c-2.947,2.974-7.917,5.271-5.838,12.356c12.44,0,25.19,0.916,37.748-0.245c13.987-1.293,18.057,3.309,17.846,17.574
	c-0.848,57.217-0.363,114.455-0.344,171.685c0.011,33.106,1.94,35.063,34.156,35.064c26.06,0.002,52.136-0.529,78.173,0.251
	c11.115,0.333,13.656-3.598,13.512-14.018c-0.544-39.338,0.05-78.692-0.406-118.032c-0.114-9.826,2.63-13.528,12.894-13.235
	c22.976,0.655,46.011,0.883,68.966-0.07c12.053-0.5,14.355,4.047,14.23,14.985l0.464,81.058
	c-0.017,11.762,0.022,23.524-0.141,35.284c-0.144,10.42,2.397,14.351,13.512,14.018c4.279-0.128,8.561-0.176,12.841-0.242
	c26.72,0.002,50.279,0.028,73.752-0.009c23.233-0.036,31.358-7.948,31.385-30.796c0.061-50.588-0.142-101.175,0.134-151.761
	c0.072-13.15-5.587-29.923,2.481-38.496c8.205-8.717,25.149-2.023,38.22-2.993c4.765-0.354,9.548-0.472,14.323-0.698
	c0.895-1.405,1.79-2.81,2.685-4.215C467.711,240.158,450.199,225.29,434.343,208.827z"/>
</svg>
