<?xml version="1.0" encoding="utf-8"?>
<!-- Generator: Adobe Illustrator 22.0.1, SVG Export Plug-In . SVG Version: 6.00 Build 0)  -->
<svg version="1.1" id="Layer_1" xmlns="http://www.w3.org/2000/svg" xmlns:xlink="http://www.w3.org/1999/xlink" x="0px" y="0px"
	 viewBox="0 0 500 500" enable-background="new 0 0 500 500" xml:space="preserve">
<g>
	<path fill="#FDFDFD" d="M421.193,424.934c0.018-54.093,0.012-108.187,0.012-162.281c0-27.548-0.082-55.097-0.091-82.645
		c0.009,27.548,0.091,55.096,0.09,82.645C421.205,316.746,421.211,370.84,421.193,424.934z"/>
	<path d="M150.122,12.225c-21.778,16.667-44.116,32.601-66.258,48.792c-5.133,3.753-5.245,9.069-5.24,14.76
		c0.094,110.191,0.183,220.382-0.086,330.572c-0.022,8.963,2.511,13.393,11.434,15.863c33.654,9.315,67.041,19.59,100.655,29.054
		c44.987,12.667,90.188,24.584,135.075,37.591c10.177,2.949,11.967,0.288,11.95-9.143c-0.197-108.688-0.17-217.377-0.022-326.065
		c0.01-7.468-1.682-11.806-9.866-13.898c-25.476-6.514-50.749-13.832-76.053-21.007c-46.305-13.131-92.601-26.293-138.804-39.772
		c-3.335-0.974-8.998-0.46-9.485-5.52c-0.374-3.892,4.138-4.975,6.904-6.992c15.278-11.14,30.519-22.333,45.608-33.726
		c4.708-3.554,8.445-4.015,14.756-2.283c71.66,19.672,143.066,40.22,214.553,60.492c15.257,4.327,18.098,10.572,18.003,25.014
		c-0.672,102.674-0.359,205.353-0.353,308.032c0,4.006-0.178,8.034,0.173,12.013c0.399,4.524,1.142,9.603,7.04,9.717
		c5.591,0.107,9.453-3.547,10.673-8.815c0.884-3.819,0.414-7.969,0.415-11.97c0.018-54.093,0.012-108.187,0.012-162.281
		c0.001-27.548-0.081-55.097-0.09-82.645c-0.009-27.548,0.054-55.095,0.344-82.64c0.128-12.123-3.847-17.766-15.582-21.028
		C326.492,54.27,247.26,31.643,168.021,9.048C161.28,7.127,156.089,7.658,150.122,12.225z"/>
</g>
</svg>
