<svg id="Layer_1" data-name="Layer 1" xmlns="http://www.w3.org/2000/svg" xmlns:xlink="http://www.w3.org/1999/xlink" viewBox="0 0 50 50"><defs><style>.cls-1{fill:none;}.cls-2{clip-path:url(#clip-path);}</style><clipPath id="clip-path"><rect class="cls-1" x="11" y="11" width="28.84" height="28.84"/></clipPath></defs><title>icon4</title><g id="Vector_Smart_Object_copy_4" data-name="Vector Smart Object copy 4"><g class="cls-2"><g class="cls-2"><path d="M25.42,39.84a3.79,3.79,0,0,1-3.79-3.79V20.87a3.8,3.8,0,1,1,7.59,0V36.05a3.8,3.8,0,0,1-3.8,3.79"/><path d="M14.79,39.84A3.79,3.79,0,0,1,11,36.05V24.66a3.8,3.8,0,0,1,7.59,0V36.05a3.8,3.8,0,0,1-3.8,3.79"/><path d="M36.05,39.84a3.8,3.8,0,0,1-3.8-3.79V14.8a3.8,3.8,0,1,1,7.59,0V36.05a3.79,3.79,0,0,1-3.79,3.79"/></g></g></g></svg>