<svg id="Layer_1" data-name="Layer 1" xmlns="http://www.w3.org/2000/svg" xmlns:xlink="http://www.w3.org/1999/xlink" viewBox="0 0 50 50"><defs><style>.cls-1{fill:none;}.cls-2{clip-path:url(#clip-path);}</style><clipPath id="clip-path"><rect class="cls-1" x="9" y="14" width="31.74" height="20.84"/></clipPath></defs><title>icon3</title><g id="Vector_Smart_Object_copy_4" data-name="Vector Smart Object copy 4"><g class="cls-2"><g class="cls-2"><path d="M39.8,19.92c-.46-.58-1.06-.26-1.59-.33a5.07,5.07,0,0,1-1.11-.32,6.29,6.29,0,0,0-2.89-2.65c.18-2,2.65-2.94-.3-2.53a4,4,0,0,0-3.15,2.06A6.12,6.12,0,0,0,28.5,17a12.7,12.7,0,0,0-5.62-1.28c-5,0-9.24,2.76-10.49,6.52-2.15.24-2-1-1.79-1.48s1.33-.8.8-.86c-1.89-.24-3.18,1.85-1.86,3.05a3.42,3.42,0,0,0,2.5.9c0,.23,0,.46,0,.69a7.75,7.75,0,0,0,2.11,5.21c0,.28-.36,2.17-.45,3-.08.69.76,1.37,1.6,1.83a2.68,2.68,0,0,0,2.44,0,7.9,7.9,0,0,0,1-1.89,13,13,0,0,0,8.05.06,7.63,7.63,0,0,0,1,1.83,2.68,2.68,0,0,0,2.44,0c.84-.46,1.68-1.14,1.61-1.83s-.32-2.16-.42-2.77a7.84,7.84,0,0,0,1-1.18,6.23,6.23,0,0,0,3.94-2.08,7.12,7.12,0,0,1,1.4-.2c.4.07,1,.48,1.4.14,2.78-2.33,1.19-6,.66-6.71m-13-1.4s-3.83-2.09-7.3,0l-.32-.64a7.52,7.52,0,0,1,7.25-.21Z"/></g></g></g></svg>