<svg id="Layer_1" data-name="Layer 1" xmlns="http://www.w3.org/2000/svg" xmlns:xlink="http://www.w3.org/1999/xlink" viewBox="0 0 50 50"><defs><style>.cls-1{fill:none;}.cls-2{clip-path:url(#clip-path);}</style><clipPath id="clip-path"><rect class="cls-1" x="15" y="12" width="20.59" height="26.46"/></clipPath></defs><title>icon7</title><g id="Vector_Smart_Object_copy_4" data-name="Vector Smart Object copy 4"><g class="cls-2"><g class="cls-2"><path d="M35.59,31.84v-.19h0l-.17-16.27a1.64,1.64,0,0,0-3.28,0v8.8c-.22-.07-.44-.14-.69-.2V13.64a1.64,1.64,0,0,0-3.28,0v9.94h-.68V13.64a1.65,1.65,0,0,0-3.29,0V24c-.24.06-.47.12-.68.19V14.94a1.64,1.64,0,0,0-3.28,0V27.76l-2.36-2.32a1.64,1.64,0,0,0-2.48,2.15L21,34.91a8,8,0,0,0,6.84,3.55c3.85,0,7.05-2.45,7.67-5.67a4.47,4.47,0,0,0,.12-.95"/></g></g></g></svg>