<?xml version="1.0" encoding="utf-8"?>
<!-- Generator: Adobe Illustrator 22.0.1, SVG Export Plug-In . SVG Version: 6.00 Build 0)  -->
<svg version="1.1" id="Layer_1" xmlns="http://www.w3.org/2000/svg" xmlns:xlink="http://www.w3.org/1999/xlink" x="0px" y="0px"
	 viewBox="0 0 500 500" enable-background="new 0 0 500 500" xml:space="preserve">
<g>
	<path d="M47.335,380.461c67.028,0.074,134.057,0.025,201.086,0.026c67.935,0,135.869,0.042,203.803-0.023
		c23.935-0.023,39.628-15.724,39.68-39.963c0.13-60.235,0.123-120.47,0.005-180.706c-0.049-24.865-15.733-40.251-40.865-40.259
		c-134.511-0.046-269.021-0.054-403.531,0.006c-26.386,0.012-39.326,12.663-39.393,38.791c-0.159,61.14-0.161,122.282,0.002,183.423
		C8.191,367.783,21.146,380.432,47.335,380.461z M32.513,163.746c0.017-15.664,3.471-19.277,19.057-19.284
		c132.267-0.067,264.534-0.066,396.802,0.002c15.638,0.008,19.116,3.604,19.134,19.216c0.065,57.074,0.053,114.148,0.01,171.223
		c-0.013,17.517-3.057,20.634-20.435,20.65c-65.681,0.057-131.361,0.023-197.042,0.024c-65.228,0.001-130.455,0.019-195.683-0.01
		c-19.258-0.009-21.854-2.636-21.861-21.957C32.474,276.988,32.451,220.367,32.513,163.746z"/>
	<path d="M62.381,309.817c6.379,2.426,11.541,8.111,13.562,14.581c3.134,10.038,9.754,10.844,18.653,10.823
		c103.247-0.233,206.495-0.283,309.742,0.052c10.463,0.034,17.957-1.313,21.993-12.45c2.643-7.293,8.869-12.787,16.386-15.453
		c6.946-2.464,8.098-7.059,8.034-13.619c-0.269-27.168-0.509-54.349,0.092-81.505c0.231-10.417-0.934-18.264-12.361-22.072
		c-6.634-2.211-11.159-8.553-13.283-14.813c-3.4-10.022-10.163-10.618-18.939-10.571c-25.811,0.138-51.623,0.172-77.435,0.172
		c-25.812,0-51.624-0.036-77.436-0.036c-52.982,0-105.965,0.061-158.947-0.03c-21.083-0.036-19.383,28.375-38.85,30.823
		c-3.6,0.452-1.955,6.352-2.246,9.828c-0.151,1.799-0.028,3.62-0.028,5.432c0,26.264,0.412,52.539-0.216,78.788
		C50.871,299.383,52.427,306.031,62.381,309.817z M216.294,199.91c22.298-21.633,54.622-19.421,73.709,5.185
		c1.294,1.669,2.505,3.366,3.634,5.092c7.896,12.08,11.698,25.558,11.11,40.418c0.334,13.964-3.252,26.676-10.506,38.207
		c-1.036,1.647-2.147,3.27-3.333,4.87c-19.337,26.088-52.594,28.558-75.452,5.608C189.163,272.893,189.561,225.846,216.294,199.91z"
		/>
</g>
</svg>
