<?xml version="1.0" encoding="utf-8"?>
<!-- Generator: Adobe Illustrator 22.0.1, SVG Export Plug-In . SVG Version: 6.00 Build 0)  -->
<svg version="1.1" id="Layer_1" xmlns="http://www.w3.org/2000/svg" xmlns:xlink="http://www.w3.org/1999/xlink" x="0px" y="0px"
	 viewBox="0 0 500 500" enable-background="new 0 0 500 500" xml:space="preserve">
<g>
	<path d="M291.884,84.061c-62.534,12.396-103.448,50.8-124.989,110.478c-1.533,4.248-0.984,5.55,2.869,7.946
		c12.091,7.519,23.065,16.023,32.157,27.693c33.282,42.717,38.415,88.11,16.014,136.988c-3.03,6.611-3.945,11.947,3.112,17.127
		c7.466,5.478,15.104,10.436,22.95,14.782c23.539,13.039,48.95,20.575,77.179,20.162c10.53-0.169,20.933-0.678,31.466-2.305
		c92.004-14.206,156.567-110.057,135.28-203.652C468.226,126.68,385.215,65.561,291.884,84.061z"/>
	<path d="M105.814,411.161c50.65-0.913,97.433-42.139,96.996-100.228c-0.428-56.775-45.104-97.101-98.002-97.952
		c-54.462-0.876-100.159,46.762-96.614,99.29C5.141,364.505,52.348,412.125,105.814,411.161z"/>
</g>
</svg>
