<svg id="Layer_1" xmlns="http://www.w3.org/2000/svg" width="210" height="50" viewBox="0 0 210 50">
    <style>
<![CDATA[
	.st0{fill:#9DA2A5;}
	.st1{fill:#36ABE1;}
]]>
    </style>
    <path class="st0" d="M25.6 32.4H4.5c-.2.8-.8 1.6-1.8 1.9v6.5c1.1.3 1.6 1.1 1.8 1.9h21.1c.2-.8.8-1.6 1.8-1.9v-6.5c-1.1-.3-1.6-1.1-1.8-1.9m-10.6 9c-1.9 0-3.4-1.7-3.4-3.9 0-2.1 1.5-3.9 3.4-3.9s3.4 1.7 3.4 3.9c0 2.1-1.5 3.9-3.4 3.9"/>
    <path class="st0" d="M27.7 31.2c.4 0 .8.3.8.8v11c0 .4-.3.8-.8.8H2.3c-.4 0-.8-.3-.8-.8V32c0-.4.3-.8.8-.8h25.4m0-1.5H2.3C1 29.7 0 30.7 0 32v11c0 1.2 1 2.3 2.3 2.3h25.5c1.2 0 2.3-1 2.3-2.3V32c-.1-1.3-1.1-2.3-2.4-2.3M49.7 27.2c-4.6 0-8.5 3-9.9 7.2 2.4 1.3 4.1 3.9 4.1 6.9 0 1.5-.4 2.8-1.1 4 1.8 1.6 4.2 2.6 6.8 2.6 5.7 0 10.3-4.6 10.3-10.3s-4.5-10.4-10.2-10.4"/>
    <path class="st0" d="M30 41.3c0 3.3 2.7 6 6 6s6-2.7 6-6-2.7-6-6-6c-3.3-.1-6 2.6-6 6M89.1 33.2c-.4-.5-1-.3-1.5-.3-.4-.1-.9-.3-1-.3-.6-1.1-1.6-2-2.7-2.5.2-1.9 2.5-2.8-.3-2.4-1.7.2-2.5 1.1-3 1.9-.8.1-1.5.4-2.1.8-1.6-.8-3.4-1.2-5.3-1.2-4.8 0-8.7 2.6-9.9 6.2-2 .2-1.9-.9-1.7-1.4.2-.5 1.3-.8.8-.8-1.8-.2-3 1.8-1.8 2.9.9.8 1.9.9 2.4.8v.7c0 1.8.7 3.5 2 4.9 0 .3-.3 2-.4 2.8-.1.6.7 1.3 1.5 1.7.8.4 1.9.3 2.3 0 .3-.2.8-1.5 1-1.8 1.2.4 2.5.6 3.9.6 1.3 0 2.5-.2 3.7-.6.2.4.7 1.5.9 1.7.4.3 1.5.4 2.3 0 .8-.4 1.6-1.1 1.5-1.7-.1-.7-.3-2-.4-2.6.3-.4.7-.7.9-1.1 1.5-.2 2.8-.9 3.7-2 .5-.1 1.1-.2 1.3-.2.4.1.9.4 1.3.1 2.6-2 1.1-5.5.6-6.2m-12.2-1.3s-3.6-2-6.9 0l-.3-.6s3.2-2.1 6.9-.2l.3.8zM105 50c-1.8 0-3.3-1.5-3.3-3.3V33.6c0-1.8 1.5-3.3 3.3-3.3 1.8 0 3.3 1.5 3.3 3.3v13.2c0 1.7-1.5 3.2-3.3 3.2M95.8 50c-1.8 0-3.3-1.5-3.3-3.3v-9.9c0-1.8 1.5-3.3 3.3-3.3 1.8 0 3.3 1.5 3.3 3.3v9.9c0 1.8-1.5 3.3-3.3 3.3M114.2 50c-1.8 0-3.3-1.5-3.3-3.3V28.3c0-1.8 1.5-3.3 3.3-3.3s3.3 1.5 3.3 3.3v18.4c0 1.8-1.5 3.3-3.3 3.3M143.3 28.7L130.7 25c-.1 0-.3 0-.4.1l-3.7 2.8c-.2.1-.2.3-.2.5v17.8l13.1 3.8V32l-12.1-3.5 3.3-2.5 12.1 3.5v17.7c0 .3.2.5.5.5s.5-.2.5-.5v-18c-.1-.3-.3-.5-.5-.5M165 25.1l-5.6 5.8v-2.7c0-.2-.2-.4-.4-.4h-2c-.2 0-.4.2-.4.4v5.7l-4 4.2h3.1v10.7c0 .7.6 1.2 1.2 1.2h5.4v-7.7h5.1V50h5.8c.7 0 1.2-.6 1.2-1.2V38h3.1L165 25.1zM204.7 43.7v-.2l-.2-15.4c0-.9-.7-1.6-1.6-1.6-.9 0-1.6.7-1.6 1.6v8.3c-.2-.1-.4-.1-.6-.2v-9.8c0-.9-.7-1.6-1.6-1.6-.9 0-1.6.7-1.6 1.6v9.4h-.7v-9.4c0-.9-.7-1.6-1.6-1.6s-1.6.7-1.6 1.6v9.7c-.2.1-.4.1-.6.2v-8.7c0-.9-.7-1.6-1.6-1.6s-1.6.7-1.6 1.6v12.1l-2.2-2.2c-.6-.6-1.5-.7-2.2-.2-.6.6-.7 1.5-.2 2.2l5.3 6.9c1.2 2 3.7 3.4 6.5 3.4 3.6 0 6.7-2.3 7.2-5.4.5-.1.5-.4.5-.7"/>
    <path class="st1" d="M25.6 7.4H4.5c-.2.8-.8 1.6-1.8 1.9v6.5c1.1.3 1.6 1.1 1.8 1.9h21.1c.2-.8.8-1.6 1.8-1.9V9.3c-1.1-.3-1.6-1.1-1.8-1.9m-10.6 9c-1.9 0-3.4-1.7-3.4-3.9 0-2.1 1.5-3.9 3.4-3.9s3.4 1.7 3.4 3.9c0 2.1-1.5 3.9-3.4 3.9"/>
    <path class="st1" d="M27.7 6.2c.4 0 .8.3.8.8v11c0 .4-.3.8-.8.8H2.3c-.4 0-.8-.3-.8-.8V7c0-.4.3-.8.8-.8h25.4m0-1.5H2.3C1 4.7 0 5.7 0 7v11c0 1.2 1 2.3 2.3 2.3h25.5c1.2 0 2.3-1 2.3-2.3V7C30 5.7 29 4.7 27.7 4.7M49.7 2.2c-4.6 0-8.5 3-9.9 7.2 2.4 1.3 4.1 3.9 4.1 6.9 0 1.5-.4 2.8-1.1 4 1.8 1.6 4.2 2.6 6.8 2.6 5.7 0 10.3-4.6 10.3-10.3S55.4 2.2 49.7 2.2"/>
    <path class="st1" d="M30 16.3c0 3.3 2.7 6 6 6s6-2.7 6-6-2.7-6-6-6c-3.3-.1-6 2.6-6 6"/>
    <g>
        <path class="st1" d="M89.1 8.2c-.4-.5-1-.3-1.5-.3-.4-.1-.9-.3-1-.3-.6-1.1-1.6-2-2.7-2.5.2-1.9 2.5-2.8-.3-2.4-1.7.2-2.5 1.1-3 1.9-.8.1-1.5.4-2.1.8-1.6-.8-3.4-1.2-5.3-1.2-4.8 0-8.7 2.6-9.9 6.2-2 .2-1.9-.9-1.7-1.4.2-.5 1.3-.8.8-.8-1.8-.2-3 1.8-1.8 2.9.9.8 1.9.9 2.4.8v.7c0 1.8.7 3.5 2 4.9 0 .3-.3 2-.4 2.8-.1.6.7 1.3 1.5 1.7.8.4 1.9.3 2.3 0 .3-.2.8-1.5 1-1.8 1.2.4 2.5.6 3.9.6 1.3 0 2.5-.2 3.7-.6.2.4.7 1.5.9 1.7.4.3 1.5.4 2.3 0 .8-.4 1.6-1.1 1.5-1.7-.1-.7-.3-2-.4-2.6.3-.4.7-.7.9-1.1 1.5-.2 2.8-.9 3.7-2 .5-.1 1.1-.2 1.3-.2.4.1.9.4 1.3.1 2.6-2 1.1-5.5.6-6.2M76.9 6.9s-3.6-2-6.9 0l-.3-.6s3.2-2.1 6.9-.2l.3.8z"/>
    </g>
    <g>
        <path class="st1" d="M105 25c-1.8 0-3.3-1.5-3.3-3.3V8.6c0-1.8 1.5-3.3 3.3-3.3 1.8 0 3.3 1.5 3.3 3.3v13.2c0 1.7-1.5 3.2-3.3 3.2M95.8 25c-1.8 0-3.3-1.5-3.3-3.3v-9.9c0-1.8 1.5-3.3 3.3-3.3 1.8 0 3.3 1.5 3.3 3.3v9.9c0 1.8-1.5 3.3-3.3 3.3M114.2 25c-1.8 0-3.3-1.5-3.3-3.3V3.3c0-1.8 1.5-3.3 3.3-3.3s3.3 1.5 3.3 3.3v18.4c0 1.8-1.5 3.3-3.3 3.3"/>
    </g>
    <g>
        <path class="st1" d="M143.3 3.7L130.7 0c-.1 0-.3 0-.4.1l-3.7 2.8c-.2.1-.2.3-.2.5v17.8l13.1 3.8V7l-12.1-3.5 3.3-2.5 12.1 3.5v17.7c0 .3.2.5.5.5s.5-.2.5-.5v-18c-.1-.3-.3-.5-.5-.5"/>
    </g>
    <g>
        <path class="st1" d="M165 .1l-5.6 5.8V3.1c0-.2-.2-.4-.4-.4h-2c-.2 0-.4.2-.4.4v5.7l-4 4.2h3.1v10.7c0 .7.6 1.2 1.2 1.2h5.4v-7.7h5.1v7.7h5.8c.7 0 1.2-.6 1.2-1.2V13h3.1L165 .1z"/>
    </g>
    <g>
        <path class="st1" d="M204.7 18.7v-.2l-.2-15.4c0-.9-.7-1.6-1.6-1.6-.9 0-1.6.7-1.6 1.6v8.3c-.2-.1-.4-.1-.6-.2V1.6c0-.9-.7-1.6-1.6-1.6-.9 0-1.6.7-1.6 1.6V11h-.7V1.6c0-.9-.7-1.6-1.6-1.6s-1.2.7-1.2 1.6v9.7c-.2.1-.4.1-.6.2V2.8c0-.9-.7-1.6-1.6-1.6s-1.6.7-1.6 1.6v12.1l-2.2-2.2c-.6-.6-1.5-.7-2.2-.2-.6.6-.7 1.5-.2 2.2l5.3 6.9c1.2 2 3.7 3.4 6.5 3.4 3.6 0 6.7-2.3 7.2-5.4.1-.3.1-.6.1-.9"/>
    </g>
</svg>
